<svg width="70" height="70" viewBox="0 0 70 70" fill="none" xmlns="http://www.w3.org/2000/svg">
<g clip-path="url(#clip0_71_10969)">
<path d="M69.9999 28.7109C69.9999 33.6974 68.701 38.6097 66.2439 42.9174C65.4956 44.229 63.8256 44.6862 62.514 43.9375C61.2023 43.1892 60.7452 41.5192 61.4934 40.2076C63.4806 36.7239 64.5311 32.7484 64.5311 28.7109C64.5311 15.8952 54.1047 5.46875 41.2889 5.46875C28.4732 5.46875 18.0468 15.8952 18.0468 28.7109C18.0468 41.5267 28.4732 51.9531 41.2889 51.9531C45.2773 51.9531 49.2106 50.9267 52.6633 48.9848C53.9798 48.2446 55.6465 48.7114 56.3867 50.0278C57.127 51.3443 56.6602 53.0111 55.3437 53.7513C51.0745 56.153 46.2146 57.4219 41.2889 57.4219C34.3878 57.4219 28.0481 54.9738 23.0909 50.901L4.66114 69.2059C4.12761 69.7356 3.43067 70 2.73426 70C2.03144 70 1.32862 69.7308 0.794026 69.1925C-0.269816 68.1212 -0.263942 66.3898 0.807378 65.3254L19.2126 47.0457C15.0715 42.0688 12.578 35.6761 12.578 28.7109C12.578 12.8799 25.4579 0 41.2889 0C57.12 0 69.9999 12.8799 69.9999 28.7109ZM51.4254 18.574C50.3578 17.5064 48.6264 17.5064 47.5588 18.574L41.2889 24.8438L35.0191 18.5745C33.9515 17.5064 32.2201 17.5064 31.1525 18.5745C30.0844 19.6421 30.0844 21.3735 31.1525 22.4416L37.4218 28.7109L31.1525 34.9802C30.0844 36.0484 30.0844 37.7798 31.1525 38.8474C31.6861 39.3814 32.3862 39.6484 33.0858 39.6484C33.7854 39.6484 34.4856 39.3814 35.0191 38.8479L41.2889 32.578L47.5582 38.8474C48.0923 39.3814 48.7924 39.6484 49.4921 39.6484C50.1917 39.6484 50.8918 39.3814 51.4254 38.8479C52.4935 37.7798 52.4935 36.0484 51.4254 34.9808L45.1561 28.7109L51.4254 22.4416C52.4935 21.3735 52.4935 19.6421 51.4254 18.574Z" fill="#3B5AA6"/>
</g>
<defs>
<clipPath id="clip0_71_10969">
<rect width="70" height="70" fill="white"/>
</clipPath>
</defs>
</svg>
