<svg width="20" height="20" viewBox="0 0 20 20" fill="none" xmlns="http://www.w3.org/2000/svg">
<rect width="20" height="20" rx="10" fill="white"/>
<path fill-rule="evenodd" clip-rule="evenodd" d="M7.9596 10.2442V15.5331C7.9596 15.7907 7.76954 15.9998 7.53535 15.9998H4.9899C4.44347 15.9998 4 15.5126 4 14.9109C4 13.7753 4 11.4084 4.01018 10.5603C4.01018 10.1839 4.18836 9.83544 4.48024 9.63944C5.58044 8.90272 6.68178 8.99979 7.78198 9.86468C7.89341 9.95241 7.9596 10.0937 7.9596 10.2442ZM7.11111 10.4931C6.38085 9.99286 5.65172 9.94806 4.92145 10.4365C4.88242 10.4633 4.85867 10.5099 4.85867 10.5603C4.85867 10.5622 4.85867 10.5641 4.85867 10.5659C4.84848 11.4184 4.84848 13.7785 4.84848 14.9109C4.84848 14.9968 4.91184 15.0665 4.9899 15.0665H7.11111V10.4931Z" fill="#2D3033"/>
<path fill-rule="evenodd" clip-rule="evenodd" d="M12.0292 10.4846C11.9127 9.55316 12.0236 8.49476 12.2147 7.64356C12.3726 6.94044 12.0462 6.46507 11.7967 6.21742L10.8051 7.30756C10.6128 7.51973 10.3486 7.63484 10.076 7.62613C9.80391 7.61742 9.54654 7.48489 9.36553 7.26089L7.58993 5.06258C7.24206 4.632 7.25959 3.9768 7.6301 3.56924L8.60133 2.50089C8.89321 2.18044 9.2886 2 9.70097 2C10.3164 2 11.3838 2 11.9534 2.0056C12.3171 2.0056 12.669 2.14622 12.9478 2.40258C12.949 2.40382 12.9501 2.40507 12.9512 2.40569C16.2015 5.46204 16.6619 11.1535 16.7208 12.8596C16.7208 12.8621 16.7208 12.8652 16.7213 12.8677C16.7292 13.2884 16.5958 13.6978 16.3463 14.017L15.267 15.4027C14.9718 15.7816 14.5402 16 14.0859 16H7.53563C7.30145 16 7.11139 15.7909 7.11139 15.5333V10.2444C7.11139 10.0634 7.20642 9.89849 7.35575 9.82196C8.60868 9.17671 9.85991 9.36587 10.9109 9.83938C11.3199 10.0242 11.6966 10.2513 12.0292 10.4846ZM13.2799 11.5524C13.4241 11.7004 13.5022 11.7925 13.5022 11.7925C13.6543 11.9717 13.6543 12.2492 13.5027 12.4291C13.3511 12.6083 13.0994 12.6282 12.9258 12.4745C12.8313 12.3905 12.7448 12.2978 12.6656 12.197C12.3109 11.8355 11.5484 11.1355 10.589 10.703C9.80787 10.3508 8.88981 10.1748 7.95987 10.5543V15.0667H14.0859C14.2924 15.0667 14.4887 14.9677 14.6227 14.7948L15.7026 13.4097C15.8151 13.2653 15.8757 13.0805 15.8728 12.8908C15.8174 11.2923 15.4316 5.96853 12.4025 3.11751C12.2764 3.0024 12.1175 2.93893 11.9534 2.93893H11.9495C11.3781 2.93333 10.3141 2.93333 9.70097 2.93333C9.51373 2.93333 9.33385 3.01547 9.20149 3.16107L8.23026 4.22942C8.17709 4.28791 8.17482 4.38124 8.2246 4.44284L9.99963 6.64116C10.0257 6.67289 10.0624 6.69218 10.1015 6.69342C10.1399 6.69467 10.1778 6.67787 10.2055 6.648L11.4522 5.27662C11.5852 5.12978 11.7905 5.09742 11.9557 5.19698C11.9557 5.19698 13.4377 6.09111 13.0383 7.86756C12.8585 8.66711 12.7516 9.67573 12.8952 10.53C12.9608 10.9214 13.0774 11.2804 13.2799 11.5524Z" fill="#2D3033"/>
<path fill-rule="evenodd" clip-rule="evenodd" d="M9.24972 5.90742C9.08454 6.08973 8.81529 6.08973 8.65012 5.90742C8.48438 5.72573 8.48438 5.42955 8.65012 5.24786L9.68188 4.11293C9.84705 3.93062 10.1163 3.93062 10.2815 4.11293C10.4472 4.29462 10.4472 4.5908 10.2815 4.77249L9.24972 5.90742Z" fill="#2D3033"/>
</svg>
